<svg width="18" height="18" viewBox="0 0 18 18" fill="none" xmlns="http://www.w3.org/2000/svg">
<path d="M7.56237 12.5296L4.09082 9.05724L5.24773 7.90033L7.56237 10.2141L12.19 5.58569L13.3477 6.74342L7.56237 12.5296Z" fill="#55AAAA"/>
<path fill-rule="evenodd" clip-rule="evenodd" d="M0 3.27273C0 2.40475 0.344804 1.57232 0.95856 0.95856C1.57232 0.344804 2.40475 0 3.27273 0H14.7273C15.5953 0 16.4277 0.344804 17.0414 0.95856C17.6552 1.57232 18 2.40475 18 3.27273V14.7273C18 15.5953 17.6552 16.4277 17.0414 17.0414C16.4277 17.6552 15.5953 18 14.7273 18H3.27273C2.40475 18 1.57232 17.6552 0.95856 17.0414C0.344804 16.4277 0 15.5953 0 14.7273V3.27273ZM3.27273 1.63636H14.7273C15.1613 1.63636 15.5775 1.80877 15.8844 2.11564C16.1912 2.42252 16.3636 2.83874 16.3636 3.27273V14.7273C16.3636 15.1613 16.1912 15.5775 15.8844 15.8844C15.5775 16.1912 15.1613 16.3636 14.7273 16.3636H3.27273C2.83874 16.3636 2.42252 16.1912 2.11564 15.8844C1.80877 15.5775 1.63636 15.1613 1.63636 14.7273V3.27273C1.63636 2.83874 1.80877 2.42252 2.11564 2.11564C2.42252 1.80877 2.83874 1.63636 3.27273 1.63636Z" fill="#55AAAA"/>
</svg>
